<svg width="24" height="24" viewBox="0 0 24 24" fill="none" xmlns="http://www.w3.org/2000/svg">
<g id="&#240;&#159;&#146;&#156; Icon / Light/Scroll">
<path id="Vector" d="M18.75 16.5V6.00002C18.7512 5.7042 18.6939 5.41106 18.5813 5.13752C18.4686 4.86397 18.3029 4.61544 18.0938 4.40626C17.8846 4.19708 17.636 4.0314 17.3625 3.91876C17.089 3.80613 16.7958 3.74878 16.5 3.75002H3.75M9.75 9.75002H15.75M9.75 12.75H15.75M2.07187 7.50002C1.829 7.22809 1.65585 6.90121 1.56733 6.54752C1.4788 6.19384 1.47756 5.82393 1.56369 5.46966C1.64983 5.11538 1.82077 4.78734 2.0618 4.51378C2.30283 4.24022 2.60673 4.02933 2.94734 3.89926C3.28795 3.76919 3.65507 3.72385 4.01709 3.76713C4.37911 3.81041 4.72519 3.94102 5.02554 4.14771C5.32589 4.3544 5.57151 4.63099 5.74126 4.95366C5.91101 5.27633 5.9998 5.63542 6 6.00002V18C6.00019 18.3646 6.08899 18.7237 6.25874 19.0464C6.42849 19.369 6.67411 19.6456 6.97446 19.8523C7.27481 20.059 7.62089 20.1896 7.98291 20.2329C8.34493 20.2762 8.71205 20.2308 9.05266 20.1008C9.39327 19.9707 9.69717 19.7598 9.9382 19.4863C10.1792 19.2127 10.3502 18.8847 10.4363 18.5304C10.5224 18.1761 10.5212 17.8062 10.4327 17.4525C10.3441 17.0988 10.171 16.7719 9.92813 16.5H20.4281C20.7177 16.8238 20.9074 17.2246 20.9743 17.6538C21.0411 18.0831 20.9823 18.5225 20.8048 18.9191C20.6274 19.3156 20.3389 19.6523 19.9743 19.8885C19.6096 20.1247 19.1844 20.2502 18.75 20.25H8.25" stroke="#F4F4F7" stroke-opacity="0.5" stroke-width="1.5" stroke-linecap="round" stroke-linejoin="round"/>
</g>
</svg>
