<svg width="33" height="33" viewBox="0 0 33 33" fill="none" xmlns="http://www.w3.org/2000/svg">
<path d="M22 13.5L14.6625 20.5L11 17M7.3125 25.6875C6.1625 24.5375 6.925 22.125 6.3375 20.7125C5.75 19.3 3.5 18.0625 3.5 16.5C3.5 14.9375 5.725 13.75 6.3375 12.2875C6.95 10.825 6.1625 8.4625 7.3125 7.3125C8.4625 6.1625 10.875 6.925 12.2875 6.3375C13.7 5.75 14.9375 3.5 16.5 3.5C18.0625 3.5 19.25 5.725 20.7125 6.3375C22.175 6.95 24.5375 6.1625 25.6875 7.3125C26.8375 8.4625 26.075 10.875 26.6625 12.2875C27.25 13.7 29.5 14.9375 29.5 16.5C29.5 18.0625 27.275 19.25 26.6625 20.7125C26.05 22.175 26.8375 24.5375 25.6875 25.6875C24.5375 26.8375 22.125 26.075 20.7125 26.6625C19.3 27.25 18.0625 29.5 16.5 29.5C14.9375 29.5 13.75 27.275 12.2875 26.6625C10.825 26.05 8.4625 26.8375 7.3125 25.6875Z" stroke="url(#paint0_linear_1409_8010)" stroke-width="2" stroke-linecap="round" stroke-linejoin="round"/>
<defs>
<linearGradient id="paint0_linear_1409_8010" x1="29.5619" y1="29.5" x2="2.28434" y2="28.0824" gradientUnits="userSpaceOnUse">
<stop stop-color="#2F40FF"/>
<stop offset="0.333333" stop-color="#8B65F7"/>
<stop offset="0.666667" stop-color="#FF6883"/>
<stop offset="1" stop-color="#F5A55B"/>
</linearGradient>
</defs>
</svg>
