<svg width="33" height="32" viewBox="0 0 33 32" fill="none" xmlns="http://www.w3.org/2000/svg">
<path d="M8.50017 26.9999C8.23496 26.9999 7.9806 26.8946 7.79307 26.707C7.60553 26.5195 7.50017 26.2651 7.50017 25.9999V20.6624C6.95156 20.9241 6.34355 21.0362 5.73767 20.9874C5.22467 20.9497 4.72627 20.7994 4.27796 20.5472C3.82965 20.295 3.44245 19.947 3.14391 19.5281C2.84537 19.1093 2.64284 18.6297 2.55072 18.1236C2.4586 17.6175 2.47917 17.0974 2.61095 16.6002C2.74273 16.1029 2.98249 15.6409 3.31317 15.2469C3.64385 14.8528 4.05731 14.5366 4.52413 14.3205C4.99095 14.1045 5.49966 13.994 6.01404 13.9969C6.52842 13.9998 7.03584 14.1161 7.50017 14.3374V8.99993C7.50017 8.73471 7.60553 8.48036 7.79307 8.29282C7.9806 8.10529 8.23496 7.99993 8.50017 7.99993H14.3377C14.076 7.45132 13.9639 6.8433 14.0127 6.23743C14.0504 5.72442 14.2007 5.22603 14.4529 4.77772C14.7051 4.32941 15.0531 3.94221 15.472 3.64367C15.8909 3.34513 16.3704 3.14259 16.8765 3.05048C17.3826 2.95836 17.9027 2.97892 18.3999 3.11071C18.8972 3.24249 19.3592 3.48225 19.7532 3.81293C20.1473 4.1436 20.4635 4.55707 20.6796 5.02389C20.8956 5.49071 21.0061 5.99941 21.0032 6.5138C21.0003 7.02818 20.884 7.53559 20.6627 7.99993H26.5002C26.7654 7.99993 27.0197 8.10529 27.2073 8.29282C27.3948 8.48036 27.5002 8.73471 27.5002 8.99993V14.3374C26.9516 14.0757 26.3435 13.9636 25.7377 14.0124C25.2247 14.0501 24.7263 14.2004 24.278 14.4527C23.8297 14.7049 23.4425 15.0528 23.1439 15.4717C22.8454 15.8906 22.6428 16.3702 22.5507 16.8762C22.4586 17.3823 22.4792 17.9025 22.611 18.3997C22.7427 18.8969 22.9825 19.359 23.3132 19.753C23.6438 20.147 24.0573 20.4633 24.5241 20.6793C24.991 20.8954 25.4997 21.0059 26.014 21.003C26.5284 21 27.0358 20.8838 27.5002 20.6624V25.9999C27.5002 26.2651 27.3948 26.5195 27.2073 26.707C27.0197 26.8946 26.7654 26.9999 26.5002 26.9999H8.50017Z" stroke="url(#paint0_linear_1573_3031)" stroke-width="1.5" stroke-linecap="round" stroke-linejoin="round"/>
<defs>
<linearGradient id="paint0_linear_1573_3031" x1="27.5597" y1="26.9999" x2="1.33096" y2="25.58" gradientUnits="userSpaceOnUse">
<stop stop-color="#2F40FF"/>
<stop offset="0.333333" stop-color="#8B65F7"/>
<stop offset="0.666667" stop-color="#FF6883"/>
<stop offset="1" stop-color="#F5A55B"/>
</linearGradient>
</defs>
</svg>
