<svg width="32" height="32" viewBox="0 0 32 32" fill="none" xmlns="http://www.w3.org/2000/svg">
<path d="M19.0001 13.4999H23.0001M9.00007 13.4999H13.0001M11.0001 11.4999V15.4999M27.9001 12.3374L29.9501 22.8874C30.0817 23.6215 29.9754 24.3785 29.6466 25.048C29.3178 25.7174 28.7838 26.2643 28.1224 26.609C27.461 26.9537 26.7068 27.078 25.9698 26.964C25.2327 26.8499 24.5514 26.5034 24.0251 25.9749L18.6251 19.9749M21.5005 6.9624L10.5005 6.9999C8.97273 7.00281 7.49456 7.54278 6.32461 8.52535C5.15466 9.50793 4.3674 10.8706 4.10055 12.3749L2.05055 22.8874C1.91892 23.6215 2.02524 24.3785 2.354 25.0479C2.68277 25.7174 3.21679 26.2643 3.87819 26.609C4.5396 26.9536 5.29381 27.078 6.03086 26.9639C6.76791 26.8499 7.44925 26.5034 7.97555 25.9749L13.3755 19.9999L21.5005 19.9624C23.2245 19.9624 24.8778 19.2776 26.0967 18.0586C27.3157 16.8396 28.0005 15.1863 28.0005 13.4624C28.0005 11.7385 27.3157 10.0852 26.0967 8.86621C24.8778 7.64722 23.2245 6.9624 21.5005 6.9624Z" stroke="url(#paint0_linear_1409_8286)" stroke-width="2" stroke-linecap="round" stroke-linejoin="round"/>
<defs>
<linearGradient id="paint0_linear_1409_8286" x1="30.0717" y1="27.0051" x2="0.761229" y2="24.8764" gradientUnits="userSpaceOnUse">
<stop stop-color="#2F40FF"/>
<stop offset="0.333333" stop-color="#8B65F7"/>
<stop offset="0.666667" stop-color="#FF6883"/>
<stop offset="1" stop-color="#F5A55B"/>
</linearGradient>
</defs>
</svg>
