<svg width="32" height="32" viewBox="0 0 32 32" fill="none" xmlns="http://www.w3.org/2000/svg">
<path d="M5.63703 24.5C5.66902 24.6314 5.72703 24.7551 5.80763 24.8638C5.88824 24.9725 5.9898 25.0639 6.10633 25.1326C6.22285 25.2014 6.35198 25.2461 6.48607 25.2641C6.62016 25.2821 6.7565 25.273 6.88703 25.2375C12.8458 23.5875 19.1408 23.5875 25.0995 25.2375C25.2301 25.273 25.3664 25.2821 25.5005 25.2641C25.6346 25.2461 25.7637 25.2014 25.8802 25.1326C25.9968 25.0639 26.0983 24.9725 26.1789 24.8638C26.2595 24.7551 26.3175 24.6314 26.3495 24.5L29.537 10.9625C29.5808 10.7813 29.573 10.5914 29.5146 10.4144C29.4562 10.2374 29.3495 10.0802 29.2065 9.9606C29.0635 9.84101 28.89 9.76377 28.7054 9.73759C28.5208 9.71141 28.3326 9.73734 28.162 9.81246L21.837 12.625C21.6079 12.7259 21.3494 12.7383 21.1116 12.6598C20.8739 12.5813 20.6736 12.4175 20.5495 12.2L16.8745 5.57496C16.7881 5.41866 16.6613 5.28837 16.5074 5.19765C16.3535 5.10693 16.1782 5.05908 15.9995 5.05908C15.8209 5.05908 15.6455 5.10693 15.4917 5.19765C15.3378 5.28837 15.211 5.41866 15.1245 5.57496L11.4495 12.2C11.3255 12.4175 11.1252 12.5813 10.8874 12.6598C10.6496 12.7383 10.3912 12.7259 10.162 12.625L3.83703 9.81246C3.66643 9.73734 3.47822 9.71141 3.29366 9.73759C3.10909 9.76377 2.93552 9.84101 2.79253 9.9606C2.64954 10.0802 2.54282 10.2374 2.48442 10.4144C2.42602 10.5914 2.41827 10.7813 2.46203 10.9625L5.63703 24.5Z" stroke="url(#paint0_linear_1409_8293)" stroke-width="2" stroke-linecap="round" stroke-linejoin="round"/>
<defs>
<linearGradient id="paint0_linear_1409_8293" x1="29.6296" y1="25.2731" x2="1.22686" y2="23.2919" gradientUnits="userSpaceOnUse">
<stop stop-color="#2F40FF"/>
<stop offset="0.333333" stop-color="#8B65F7"/>
<stop offset="0.666667" stop-color="#FF6883"/>
<stop offset="1" stop-color="#F5A55B"/>
</linearGradient>
</defs>
</svg>
