<svg width="25" height="24" viewBox="0 0 25 24" fill="none" xmlns="http://www.w3.org/2000/svg">
<path d="M12.5 15.75C14.5711 15.75 16.25 14.0711 16.25 12C16.25 9.92893 14.5711 8.25 12.5 8.25C10.4289 8.25 8.75 9.92893 8.75 12C8.75 14.0711 10.4289 15.75 12.5 15.75Z" stroke="#F4F4F7" stroke-opacity="0.7" stroke-width="2" stroke-miterlimit="10"/>
<path d="M16.625 3.375H8.375C5.88972 3.375 3.875 5.38972 3.875 7.875V16.125C3.875 18.6103 5.88972 20.625 8.375 20.625H16.625C19.1103 20.625 21.125 18.6103 21.125 16.125V7.875C21.125 5.38972 19.1103 3.375 16.625 3.375Z" stroke="#F4F4F7" stroke-opacity="0.7" stroke-width="2" stroke-linecap="round" stroke-linejoin="round"/>
<path d="M17.375 8.25C17.9963 8.25 18.5 7.74632 18.5 7.125C18.5 6.50368 17.9963 6 17.375 6C16.7537 6 16.25 6.50368 16.25 7.125C16.25 7.74632 16.7537 8.25 17.375 8.25Z" fill="#F4F4F7" fill-opacity="0.7"/>
</svg>
