<svg width="24" height="24" viewBox="0 0 24 24" fill="none" xmlns="http://www.w3.org/2000/svg">
<g id="&#240;&#159;&#146;&#156; Icon / Light/Lightbulb">
<path id="Vector" d="M8.25 21.75H15.75" stroke="#F4F4F7" stroke-opacity="0.5" stroke-width="1.5" stroke-linecap="round" stroke-linejoin="round"/>
<path id="Vector_2" d="M7.3782 15.6564C6.48532 14.9621 5.76216 14.0738 5.26351 13.0586C4.76485 12.0434 4.50378 10.9281 4.50008 9.79703C4.48133 5.72828 7.7532 2.3439 11.822 2.25015C13.3966 2.21283 14.9431 2.67222 16.242 3.56318C17.541 4.45415 18.5264 5.73146 19.0586 7.21395C19.5908 8.69644 19.6428 10.3089 19.2071 11.8225C18.7714 13.3362 17.8702 14.6743 16.6313 15.647C16.3577 15.8586 16.136 16.1299 15.9832 16.4402C15.8305 16.7506 15.7507 17.0918 15.7501 17.4377V18.0002C15.7501 18.1991 15.6711 18.3898 15.5304 18.5305C15.3898 18.6711 15.199 18.7502 15.0001 18.7502H9.00008C8.80117 18.7502 8.6104 18.6711 8.46975 18.5305C8.3291 18.3898 8.25008 18.1991 8.25008 18.0002V17.4377C8.24773 17.0944 8.16814 16.756 8.01721 16.4476C7.86628 16.1393 7.64788 15.8689 7.3782 15.6564V15.6564Z" stroke="#F4F4F7" stroke-opacity="0.5" stroke-width="1.5" stroke-linecap="round" stroke-linejoin="round"/>
<path id="Vector_3" d="M12.7588 5.3252C13.6755 5.48059 14.5213 5.91667 15.1796 6.57325C15.8378 7.22984 16.2761 8.07456 16.4338 8.99082" stroke="#F4F4F7" stroke-opacity="0.5" stroke-width="1.5" stroke-linecap="round" stroke-linejoin="round"/>
</g>
</svg>
