<svg width="25" height="24" viewBox="0 0 25 24" fill="none" xmlns="http://www.w3.org/2000/svg">
<path d="M20.375 3.375H4.625C4.21079 3.375 3.875 3.71079 3.875 4.125V19.875C3.875 20.2892 4.21079 20.625 4.625 20.625H20.375C20.7892 20.625 21.125 20.2892 21.125 19.875V4.125C21.125 3.71079 20.7892 3.375 20.375 3.375Z" stroke="#F4F4F7" stroke-opacity="0.7" stroke-width="2" stroke-linecap="round" stroke-linejoin="round"/>
<path d="M8.75 10.5V16.5" stroke="#F4F4F7" stroke-opacity="0.7" stroke-width="2" stroke-linecap="round" stroke-linejoin="round"/>
<path d="M11.75 10.5V16.5M11.75 13.125C11.75 12.4288 12.0266 11.7611 12.5188 11.2688C13.0111 10.7766 13.6788 10.5 14.375 10.5C15.0712 10.5 15.7389 10.7766 16.2312 11.2688C16.7234 11.7611 17 12.4288 17 13.125V16.5" stroke="#F4F4F7" stroke-opacity="0.7" stroke-width="2" stroke-linecap="round" stroke-linejoin="round"/>
<path d="M8.75 8.625C9.37132 8.625 9.875 8.12132 9.875 7.5C9.875 6.87868 9.37132 6.375 8.75 6.375C8.12868 6.375 7.625 6.87868 7.625 7.5C7.625 8.12132 8.12868 8.625 8.75 8.625Z" fill="#F4F4F7" fill-opacity="0.7"/>
</svg>
