<svg width="24" height="25" viewBox="0 0 24 25" fill="none" xmlns="http://www.w3.org/2000/svg">
<path d="M7.14321 13.0605L14.2682 4.4355L20.2495 4.41675L20.2307 10.398L11.6057 17.523M9.37479 15.2917L14.9998 9.66675M7.69706 19.1824L4.89393 21.9855C4.75333 22.1258 4.56284 22.2045 4.36424 22.2045C4.16565 22.2045 3.97516 22.1258 3.83456 21.9855L2.68143 20.8324C2.54117 20.6918 2.4624 20.5013 2.4624 20.3027C2.4624 20.1041 2.54117 19.9136 2.68143 19.773L5.48456 16.9699C5.55542 16.9001 5.61169 16.8169 5.65011 16.7252C5.68852 16.6334 5.7083 16.535 5.7083 16.4355C5.7083 16.3361 5.68852 16.2376 5.65011 16.1459C5.61169 16.0541 5.55542 15.9709 5.48456 15.9011L3.53456 13.9511C3.46369 13.8814 3.40742 13.7982 3.369 13.7064C3.33059 13.6147 3.31081 13.5162 3.31081 13.4168C3.31081 13.3173 3.33059 13.2188 3.369 13.1271C3.40742 13.0354 3.46369 12.9522 3.53456 12.8824L4.71581 11.7011C4.78559 11.6303 4.86878 11.574 4.96052 11.5356C5.05226 11.4972 5.15072 11.4774 5.25018 11.4774C5.34964 11.4774 5.4481 11.4972 5.53984 11.5356C5.63158 11.574 5.71477 11.6303 5.78456 11.7011L12.9658 18.8824C13.0367 18.9522 13.0929 19.0354 13.1314 19.1271C13.1698 19.2188 13.1896 19.3173 13.1896 19.4168C13.1896 19.5162 13.1698 19.6147 13.1314 19.7064C13.0929 19.7982 13.0367 19.8814 12.9658 19.9511L11.7846 21.1324C11.7148 21.2033 11.6316 21.2595 11.5398 21.2979C11.4481 21.3364 11.3496 21.3561 11.2502 21.3561C11.1507 21.3561 11.0523 21.3364 10.9605 21.2979C10.8688 21.2595 10.7856 21.2033 10.7158 21.1324L8.76581 19.1824C8.69602 19.1115 8.61283 19.0553 8.52109 19.0168C8.42935 18.9784 8.33089 18.9586 8.23143 18.9586C8.13197 18.9586 8.03351 18.9784 7.94177 19.0168C7.85003 19.0553 7.76684 19.1115 7.69706 19.1824Z" stroke="#F4F4F7" stroke-opacity="0.5" stroke-width="2" stroke-linecap="round" stroke-linejoin="round"/>
</svg>
