<svg width="16" height="17" viewBox="0 0 16 17" fill="none" xmlns="http://www.w3.org/2000/svg">
<path d="M11 8.83374H14C14.1326 8.83374 14.2598 8.88642 14.3536 8.98019C14.4473 9.07395 14.5 9.20113 14.5 9.33374V13.3337C14.5 13.4663 14.4473 13.5935 14.3536 13.6873C14.2598 13.7811 14.1326 13.8337 14 13.8337H2C1.86739 13.8337 1.74021 13.7811 1.64645 13.6873C1.55268 13.5935 1.5 13.4663 1.5 13.3337V9.33374C1.5 9.20113 1.55268 9.07395 1.64645 8.98019C1.74021 8.88642 1.86739 8.83374 2 8.83374H5M8 8.83374V2.33374M8 2.33374L5 5.33374M8 2.33374L11 5.33374" stroke="#F4F4F7" stroke-opacity="0.5" stroke-width="1.5" stroke-linecap="round" stroke-linejoin="round"/>
<path d="M11.75 12.0833C12.1642 12.0833 12.5 11.7475 12.5 11.3333C12.5 10.919 12.1642 10.5833 11.75 10.5833C11.3358 10.5833 11 10.919 11 11.3333C11 11.7475 11.3358 12.0833 11.75 12.0833Z" fill="#F4F4F7" fill-opacity="0.5"/>
</svg>
