<svg width="30" height="30" viewBox="0 0 30 30" fill="none" xmlns="http://www.w3.org/2000/svg">
<path d="M18.3513 5.06C18.1073 4.94 17.8633 5.06 17.8033 5.303C17.7423 5.364 17.7423 5.425 17.7423 5.546V6.396L17.7523 6.5C17.8045 6.70573 17.931 6.88489 18.1073 7.003C22.8613 8.703 25.2993 13.983 23.5313 18.656C22.6173 21.206 20.6063 23.147 18.1073 24.058C17.8633 24.179 17.7423 24.361 17.7423 24.665V25.515L17.7473 25.603C17.7568 25.699 17.7969 25.7895 17.8618 25.8609C17.9266 25.9324 18.0127 25.9812 18.1073 26C18.1683 26 18.2903 26 18.3513 25.94C19.7229 25.5117 20.9962 24.8163 22.0979 23.8938C23.1996 22.9714 24.108 21.8401 24.7707 20.5652C25.4334 19.2902 25.8373 17.8968 25.9593 16.4651C26.0813 15.0334 25.9188 13.5917 25.4813 12.223C24.3853 8.763 21.7033 6.152 18.3513 5.06Z" fill="#F4F4F7" fill-opacity="0.7"/>
<path d="M15.4263 8.156H14.5113L14.4233 8.164C14.2233 8.204 14.0773 8.376 14.0233 8.642V10.038L13.8163 10.07C12.1083 10.374 11.0383 11.553 11.0383 13.012C11.0383 15.014 12.2563 15.803 14.8163 16.107C16.5233 16.41 17.0713 16.775 17.0713 17.746C17.0713 18.716 16.2183 19.384 15.0603 19.384C13.4753 19.384 12.9273 18.717 12.7443 17.806C12.6843 17.564 12.5003 17.442 12.3173 17.442H11.2813L11.2023 17.449C11.1037 17.4649 11.0142 17.5161 10.9504 17.5929C10.8866 17.6698 10.8528 17.7671 10.8553 17.867V17.927L10.8883 18.107C11.1783 19.531 12.1543 20.55 14.0853 20.841V22.298L14.0933 22.386C14.1333 22.584 14.3063 22.73 14.5733 22.783H15.4873L15.5753 22.775C15.7753 22.735 15.9213 22.563 15.9753 22.298V20.84L16.1823 20.8C17.8953 20.438 19.0223 19.199 19.0223 17.623C19.0223 15.499 17.7423 14.771 15.1823 14.467C13.3533 14.224 12.9883 13.739 12.9883 12.889C12.9883 12.039 13.5983 11.493 14.8163 11.493C15.9133 11.493 16.5233 11.857 16.8273 12.768C16.859 12.8561 16.9169 12.9324 16.9932 12.9865C17.0696 13.0407 17.1607 13.0702 17.2543 13.071H18.2293L18.3083 13.065C18.4073 13.0493 18.4971 12.9981 18.5612 12.921C18.6252 12.8439 18.659 12.7462 18.6563 12.646V12.586L18.6193 12.413C18.4692 11.7914 18.1268 11.233 17.641 10.8172C17.1552 10.4014 16.5506 10.1494 15.9133 10.097V8.642L15.9053 8.554C15.8653 8.355 15.6933 8.209 15.4263 8.156Z" fill="#F4F4F7" fill-opacity="0.7"/>
<path d="M11.8913 5C11.8303 5 11.7083 5 11.6473 5.06C10.2757 5.48832 9.00244 6.18373 7.90073 7.10617C6.79902 8.02862 5.89066 9.15988 5.22795 10.4348C4.56525 11.7098 4.16128 13.1032 4.03932 14.5349C3.91736 15.9666 4.0798 17.4083 4.51731 18.777C5.61331 22.177 8.23431 24.787 11.6473 25.879C11.8913 26 12.1353 25.879 12.1953 25.636C12.2563 25.576 12.2563 25.514 12.2563 25.393V24.543L12.2463 24.463C12.2043 24.294 12.0473 24.101 11.8913 23.997C7.13731 22.297 4.69931 17.017 6.46731 12.344C7.38131 9.794 9.39231 7.853 11.8913 6.942C12.1353 6.821 12.2563 6.639 12.2563 6.335V5.485L12.2513 5.397C12.2418 5.30097 12.2017 5.21055 12.1369 5.13907C12.072 5.06758 11.986 5.01883 11.8913 5Z" fill="#F4F4F7" fill-opacity="0.7"/>
</svg>
