<svg width="34" height="34" viewBox="0 0 34 34" fill="none" xmlns="http://www.w3.org/2000/svg">
<rect x="1" y="1" width="32" height="32" rx="16" fill="#1A1A23"/>
<path fill-rule="evenodd" clip-rule="evenodd" d="M11.2855 11C7.73697 11 5 13.7914 5 17.1626C5 20.5598 7.71385 23.3498 11.2855 23.3498C13.674 23.3498 15.6881 22.1021 16.7613 20.2631L16.9976 19.8582L18.2524 17.701C18.2751 17.8158 18.4345 18.0453 18.6395 18.1371L17.3126 20.3975C18.397 22.1627 20.3603 23.3498 22.69 23.3498C26.263 23.3498 29 20.5584 29 17.1626C29 13.8154 26.2868 11 22.69 11C20.3161 11 18.3055 12.2496 17.2346 14.0848L16.9992 14.4882L15.7476 16.5995L15.5199 15.8881L16.6746 13.9374C15.5857 12.1886 13.6224 11 11.2855 11ZM19.6462 17.7061H19.046C18.8447 17.7061 18.68 17.5412 18.6969 17.3391C18.8703 15.266 20.5032 13.6083 22.7065 13.6083C24.9099 13.6083 26.5713 15.266 26.7479 17.3392C26.7651 17.5412 26.6003 17.7061 26.3991 17.7061H25.7576C25.5231 19.1913 24.294 20.3445 22.69 20.3445C21.086 20.3445 19.8766 19.1913 19.6462 17.7061ZM14.3531 17.7061C14.2808 18.1642 14.1139 18.5907 13.8705 18.9616C13.7419 19.1357 13.6238 19.285 13.5195 19.403C12.9652 19.9825 12.1842 20.3445 11.2855 20.3445C9.68157 20.3445 8.47214 19.1913 8.24171 17.7061H7.60098C7.39977 17.7061 7.23502 17.5412 7.25192 17.3391C7.42531 15.266 9.05826 13.6083 11.2616 13.6083C13.4649 13.6083 15.1264 15.266 15.3029 17.3392C15.3201 17.5412 15.1553 17.7061 14.9541 17.7061H14.3531Z" fill="#515FFF"/>
<path d="M11.2564 13.0727C8.897 13.0727 7.12612 14.7878 6.82537 16.9599C6.73634 17.6028 7.27142 18.0735 7.83343 18.0735H14.7112C15.2729 18.0735 15.8091 17.6028 15.7184 16.9589C15.412 14.7841 13.6123 13.0727 11.2564 13.0727Z" stroke="#515FFF" stroke-width="0.902971"/>
<path d="M22.6875 13.0727C20.3282 13.0727 18.5573 14.7878 18.2565 16.9599C18.1675 17.6028 18.7026 18.0735 19.2646 18.0735H26.1424C26.704 18.0735 27.2403 17.6028 27.1496 16.9589C26.8431 14.7841 25.0434 13.0727 22.6875 13.0727Z" stroke="#515FFF" stroke-width="0.902971"/>
<rect x="0.5" y="0.5" width="33" height="33" rx="16.5" stroke="#F4F4F7" stroke-opacity="0.08"/>
</svg>
