<svg width="41" height="41" viewBox="0 0 41 41" fill="none" xmlns="http://www.w3.org/2000/svg">
<circle cx="20.5" cy="20.5" r="16" stroke="#F4F4F7" stroke-opacity="0.08" stroke-width="8"/>
<mask id="path-2-inside-1_1409_7919" fill="white">
<path d="M36.3597 8.31514C34.4319 5.80592 31.9362 3.78993 29.0777 2.43282C26.2192 1.07571 23.0796 0.416212 19.9166 0.50851C16.7537 0.600808 13.6578 1.44227 10.8833 2.96376C8.10887 4.48524 5.735 6.64333 3.95679 9.26069L8.67948 12.4692C9.95005 10.5991 11.6462 9.05707 13.6287 7.96993C15.6111 6.8828 17.8232 6.28155 20.0832 6.2156C22.3432 6.14965 24.5865 6.62088 26.629 7.59057C28.6714 8.56026 30.4546 10.0007 31.8321 11.7936L36.3597 8.31514Z"/>
</mask>
<path d="M36.3597 8.31514C34.4319 5.80592 31.9362 3.78993 29.0777 2.43282C26.2192 1.07571 23.0796 0.416212 19.9166 0.50851C16.7537 0.600808 13.6578 1.44227 10.8833 2.96376C8.10887 4.48524 5.735 6.64333 3.95679 9.26069L8.67948 12.4692C9.95005 10.5991 11.6462 9.05707 13.6287 7.96993C15.6111 6.8828 17.8232 6.28155 20.0832 6.2156C22.3432 6.14965 24.5865 6.62088 26.629 7.59057C28.6714 8.56026 30.4546 10.0007 31.8321 11.7936L36.3597 8.31514Z" stroke="url(#paint0_linear_1409_7919)" stroke-width="16" mask="url(#path-2-inside-1_1409_7919)"/>
<defs>
<linearGradient id="paint0_linear_1409_7919" x1="40.5952" y1="40.5" x2="-1.37025" y2="38.319" gradientUnits="userSpaceOnUse">
<stop stop-color="#2F40FF"/>
<stop offset="0.333333" stop-color="#8B65F7"/>
<stop offset="0.666667" stop-color="#FF6883"/>
<stop offset="1" stop-color="#F5A55B"/>
</linearGradient>
</defs>
</svg>
