<svg width="1200" height="720" viewBox="0 0 1200 720" fill="none" xmlns="http://www.w3.org/2000/svg">
<mask id="mask0_1409_8437" style="mask-type:alpha" maskUnits="userSpaceOnUse" x="0" y="0" width="1200" height="720">
<rect width="1200" height="720" fill="url(#paint0_radial_1409_8437)"/>
</mask>
<g mask="url(#mask0_1409_8437)">
<rect x="0.6" y="0.6" width="118.8" height="118.8" stroke="#F4F4F7" stroke-opacity="0.08" stroke-width="1.2"/>
<rect x="120.6" y="0.6" width="118.8" height="118.8" stroke="#F4F4F7" stroke-opacity="0.08" stroke-width="1.2"/>
<rect x="240.6" y="0.6" width="118.8" height="118.8" stroke="#F4F4F7" stroke-opacity="0.08" stroke-width="1.2"/>
<rect x="360.6" y="0.6" width="118.8" height="118.8" stroke="#F4F4F7" stroke-opacity="0.08" stroke-width="1.2"/>
<rect x="480.6" y="0.6" width="118.8" height="118.8" stroke="#F4F4F7" stroke-opacity="0.08" stroke-width="1.2"/>
<rect x="600.6" y="0.6" width="118.8" height="118.8" stroke="#F4F4F7" stroke-opacity="0.08" stroke-width="1.2"/>
<rect x="720.6" y="0.6" width="118.8" height="118.8" stroke="#F4F4F7" stroke-opacity="0.08" stroke-width="1.2"/>
<rect x="840.6" y="0.6" width="118.8" height="118.8" stroke="#F4F4F7" stroke-opacity="0.08" stroke-width="1.2"/>
<rect x="960.6" y="0.6" width="118.8" height="118.8" stroke="#F4F4F7" stroke-opacity="0.08" stroke-width="1.2"/>
<rect x="1080.6" y="0.6" width="118.8" height="118.8" stroke="#F4F4F7" stroke-opacity="0.08" stroke-width="1.2"/>
<rect x="0.6" y="120.6" width="118.8" height="118.8" stroke="#F4F4F7" stroke-opacity="0.08" stroke-width="1.2"/>
<rect x="120.6" y="120.6" width="118.8" height="118.8" stroke="#F4F4F7" stroke-opacity="0.08" stroke-width="1.2"/>
<rect x="240.6" y="120.6" width="118.8" height="118.8" stroke="#F4F4F7" stroke-opacity="0.08" stroke-width="1.2"/>
<rect x="360.6" y="120.6" width="118.8" height="118.8" stroke="#F4F4F7" stroke-opacity="0.08" stroke-width="1.2"/>
<rect x="480.6" y="120.6" width="118.8" height="118.8" stroke="#F4F4F7" stroke-opacity="0.08" stroke-width="1.2"/>
<rect x="600.6" y="120.6" width="118.8" height="118.8" stroke="#F4F4F7" stroke-opacity="0.08" stroke-width="1.2"/>
<rect x="720.6" y="120.6" width="118.8" height="118.8" stroke="#F4F4F7" stroke-opacity="0.08" stroke-width="1.2"/>
<rect x="840.6" y="120.6" width="118.8" height="118.8" stroke="#F4F4F7" stroke-opacity="0.08" stroke-width="1.2"/>
<rect x="960.6" y="120.6" width="118.8" height="118.8" stroke="#F4F4F7" stroke-opacity="0.08" stroke-width="1.2"/>
<rect x="1080.6" y="120.6" width="118.8" height="118.8" stroke="#F4F4F7" stroke-opacity="0.08" stroke-width="1.2"/>
<rect x="0.6" y="240.6" width="118.8" height="118.8" stroke="#F4F4F7" stroke-opacity="0.08" stroke-width="1.2"/>
<rect x="120.6" y="240.6" width="118.8" height="118.8" stroke="#F4F4F7" stroke-opacity="0.08" stroke-width="1.2"/>
<rect x="240.6" y="240.6" width="118.8" height="118.8" stroke="#F4F4F7" stroke-opacity="0.08" stroke-width="1.2"/>
<rect x="360.6" y="240.6" width="118.8" height="118.8" stroke="#F4F4F7" stroke-opacity="0.08" stroke-width="1.2"/>
<rect x="480.6" y="240.6" width="118.8" height="118.8" stroke="#F4F4F7" stroke-opacity="0.08" stroke-width="1.2"/>
<rect x="600.6" y="240.6" width="118.8" height="118.8" stroke="#F4F4F7" stroke-opacity="0.08" stroke-width="1.2"/>
<rect x="720.6" y="240.6" width="118.8" height="118.8" stroke="#F4F4F7" stroke-opacity="0.08" stroke-width="1.2"/>
<rect x="840.6" y="240.6" width="118.8" height="118.8" stroke="#F4F4F7" stroke-opacity="0.08" stroke-width="1.2"/>
<rect x="960.6" y="240.6" width="118.8" height="118.8" stroke="#F4F4F7" stroke-opacity="0.08" stroke-width="1.2"/>
<rect x="1080.6" y="240.6" width="118.8" height="118.8" stroke="#F4F4F7" stroke-opacity="0.08" stroke-width="1.2"/>
<rect x="0.6" y="360.6" width="118.8" height="118.8" stroke="#F4F4F7" stroke-opacity="0.08" stroke-width="1.2"/>
<rect x="120.6" y="360.6" width="118.8" height="118.8" stroke="#F4F4F7" stroke-opacity="0.08" stroke-width="1.2"/>
<rect x="240.6" y="360.6" width="118.8" height="118.8" stroke="#F4F4F7" stroke-opacity="0.08" stroke-width="1.2"/>
<rect x="360.6" y="360.6" width="118.8" height="118.8" stroke="#F4F4F7" stroke-opacity="0.08" stroke-width="1.2"/>
<rect x="480.6" y="360.6" width="118.8" height="118.8" stroke="#F4F4F7" stroke-opacity="0.08" stroke-width="1.2"/>
<rect x="600.6" y="360.6" width="118.8" height="118.8" stroke="#F4F4F7" stroke-opacity="0.08" stroke-width="1.2"/>
<rect x="720.6" y="360.6" width="118.8" height="118.8" stroke="#F4F4F7" stroke-opacity="0.08" stroke-width="1.2"/>
<rect x="840.6" y="360.6" width="118.8" height="118.8" stroke="#F4F4F7" stroke-opacity="0.08" stroke-width="1.2"/>
<rect x="960.6" y="360.6" width="118.8" height="118.8" stroke="#F4F4F7" stroke-opacity="0.08" stroke-width="1.2"/>
<rect x="1080.6" y="360.6" width="118.8" height="118.8" stroke="#F4F4F7" stroke-opacity="0.08" stroke-width="1.2"/>
<rect x="0.6" y="480.6" width="118.8" height="118.8" stroke="#F4F4F7" stroke-opacity="0.08" stroke-width="1.2"/>
<rect x="120.6" y="480.6" width="118.8" height="118.8" stroke="#F4F4F7" stroke-opacity="0.08" stroke-width="1.2"/>
<rect x="240.6" y="480.6" width="118.8" height="118.8" stroke="#F4F4F7" stroke-opacity="0.08" stroke-width="1.2"/>
<rect x="360.6" y="480.6" width="118.8" height="118.8" stroke="#F4F4F7" stroke-opacity="0.08" stroke-width="1.2"/>
<rect x="480.6" y="480.6" width="118.8" height="118.8" stroke="#F4F4F7" stroke-opacity="0.08" stroke-width="1.2"/>
<rect x="600.6" y="480.6" width="118.8" height="118.8" stroke="#F4F4F7" stroke-opacity="0.08" stroke-width="1.2"/>
<rect x="720.6" y="480.6" width="118.8" height="118.8" stroke="#F4F4F7" stroke-opacity="0.08" stroke-width="1.2"/>
<rect x="840.6" y="480.6" width="118.8" height="118.8" stroke="#F4F4F7" stroke-opacity="0.08" stroke-width="1.2"/>
<rect x="960.6" y="480.6" width="118.8" height="118.8" stroke="#F4F4F7" stroke-opacity="0.08" stroke-width="1.2"/>
<rect x="1080.6" y="480.6" width="118.8" height="118.8" stroke="#F4F4F7" stroke-opacity="0.08" stroke-width="1.2"/>
<rect x="0.6" y="600.6" width="118.8" height="118.8" stroke="#F4F4F7" stroke-opacity="0.08" stroke-width="1.2"/>
<rect x="120.6" y="600.6" width="118.8" height="118.8" stroke="#F4F4F7" stroke-opacity="0.08" stroke-width="1.2"/>
<rect x="240.6" y="600.6" width="118.8" height="118.8" stroke="#F4F4F7" stroke-opacity="0.08" stroke-width="1.2"/>
<rect x="360.6" y="600.6" width="118.8" height="118.8" stroke="#F4F4F7" stroke-opacity="0.08" stroke-width="1.2"/>
<rect x="480.6" y="600.6" width="118.8" height="118.8" stroke="#F4F4F7" stroke-opacity="0.08" stroke-width="1.2"/>
<rect x="600.6" y="600.6" width="118.8" height="118.8" stroke="#F4F4F7" stroke-opacity="0.08" stroke-width="1.2"/>
<rect x="720.6" y="600.6" width="118.8" height="118.8" stroke="#F4F4F7" stroke-opacity="0.08" stroke-width="1.2"/>
<rect x="840.6" y="600.6" width="118.8" height="118.8" stroke="#F4F4F7" stroke-opacity="0.08" stroke-width="1.2"/>
<rect x="960.6" y="600.6" width="118.8" height="118.8" stroke="#F4F4F7" stroke-opacity="0.08" stroke-width="1.2"/>
<rect x="1080.6" y="600.6" width="118.8" height="118.8" stroke="#F4F4F7" stroke-opacity="0.08" stroke-width="1.2"/>
</g>
<defs>
<radialGradient id="paint0_radial_1409_8437" cx="0" cy="0" r="1" gradientUnits="userSpaceOnUse" gradientTransform="translate(600 360) rotate(90) scale(360 600)">
<stop stop-color="#D9D9D9"/>
<stop offset="1" stop-color="#D9D9D9" stop-opacity="0"/>
</radialGradient>
</defs>
</svg>
