<svg width="48" height="48" viewBox="0 0 48 48" fill="none" xmlns="http://www.w3.org/2000/svg">
<path fill-rule="evenodd" clip-rule="evenodd" d="M12.5711 12C5.47394 12 0 17.5828 0 24.3251C0 31.1195 5.42771 36.6996 12.5711 36.6996C17.348 36.6996 21.3763 34.2043 23.5227 30.5262L23.9952 29.7164L26.5047 25.4021C26.5503 25.6316 26.8691 26.0905 27.2789 26.2741L24.6252 30.795C26.7939 34.3254 30.7205 36.6996 35.38 36.6996C42.526 36.6996 48 31.1168 48 24.3251C48 17.6308 42.5736 12 35.38 12C30.6323 12 26.6109 14.4993 24.4692 18.1696L23.9984 18.9763L21.4953 23.199L21.0398 21.7762L23.3492 17.8749C21.1714 14.3773 17.2448 12 12.5711 12ZM29.2923 25.4122H28.0919C27.6895 25.4122 27.36 25.0824 27.3938 24.6783C27.7406 20.5319 31.0065 17.2165 35.4131 17.2165C39.8197 17.2165 43.1427 20.532 43.4957 24.6783C43.5301 25.0824 43.2006 25.4122 42.7981 25.4122H41.5152C41.0462 28.3827 38.5879 30.6891 35.38 30.6891C32.1721 30.6891 29.7532 28.3827 29.2923 25.4122ZM18.7063 25.4122C18.5616 26.3284 18.2277 27.1815 17.7409 27.9232C17.4838 28.2714 17.2477 28.57 17.0391 28.8059C15.9304 29.9651 14.3684 30.6891 12.5711 30.6891C9.36315 30.6891 6.94429 28.3827 6.48341 25.4122H5.20197C4.79954 25.4122 4.47005 25.0824 4.50385 24.6783C4.85062 20.5319 8.11652 17.2165 12.5231 17.2165C16.9298 17.2165 20.2527 20.532 20.6058 24.6783C20.6402 25.0824 20.3106 25.4122 19.9082 25.4122H18.7063Z" fill="#515FFF"/>
<path d="M12.5127 16.1455C7.794 16.1455 4.25225 19.5756 3.65073 23.9198C3.47269 25.2057 4.54284 26.1471 5.66685 26.1471H19.4225C20.5457 26.1471 21.6183 25.2056 21.4368 23.9178C20.824 19.5682 17.2245 16.1455 12.5127 16.1455Z" stroke="#515FFF" stroke-width="1.80594"/>
<path d="M35.375 16.1455C30.6563 16.1455 27.1146 19.5756 26.513 23.9198C26.335 25.2057 27.4051 26.1471 28.5292 26.1471H42.2848C43.408 26.1471 44.4806 25.2056 44.2991 23.9178C43.6863 19.5682 40.0868 16.1455 35.375 16.1455Z" stroke="#515FFF" stroke-width="1.80594"/>
</svg>
