<svg width="25" height="24" viewBox="0 0 25 24" fill="none" xmlns="http://www.w3.org/2000/svg">
<path d="M4.97777 18.3751C5.00177 18.4737 5.04527 18.5665 5.10573 18.648C5.16618 18.7295 5.24235 18.798 5.32975 18.8496C5.41714 18.9011 5.51398 18.9347 5.61455 18.9482C5.71512 18.9617 5.81737 18.9549 5.91528 18.9282C10.3843 17.6908 15.1056 17.6908 19.5747 18.9282C19.6726 18.9549 19.7748 18.9617 19.8754 18.9482C19.9759 18.9347 20.0728 18.9011 20.1602 18.8496C20.2476 18.798 20.3237 18.7295 20.3842 18.648C20.4447 18.5665 20.4882 18.4737 20.5122 18.3751L22.9028 8.22197C22.9356 8.08606 22.9298 7.9437 22.886 7.81093C22.8422 7.67815 22.7621 7.56027 22.6549 7.47057C22.5477 7.38088 22.4175 7.32295 22.2791 7.30331C22.1406 7.28368 21.9995 7.30313 21.8715 7.35947L17.1278 9.46884C16.9559 9.54452 16.7621 9.55382 16.5837 9.49496C16.4054 9.43609 16.2552 9.31322 16.1622 9.15009L13.4059 4.18134C13.341 4.06412 13.246 3.9664 13.1306 3.89836C13.0152 3.83032 12.8836 3.79443 12.7497 3.79443C12.6157 3.79443 12.4842 3.83032 12.3687 3.89836C12.2533 3.9664 12.1583 4.06412 12.0934 4.18134L9.33715 9.15009C9.2441 9.31322 9.0939 9.43609 8.91557 9.49496C8.73723 9.55382 8.5434 9.54452 8.37153 9.46884L3.62778 7.35947C3.49982 7.30313 3.35866 7.28368 3.22024 7.30331C3.08182 7.32295 2.95164 7.38088 2.8444 7.47057C2.73715 7.56027 2.65711 7.67815 2.61332 7.81093C2.56952 7.9437 2.5637 8.08606 2.59652 8.22197L4.97777 18.3751Z" stroke="#F4F4F7" stroke-width="2" stroke-linecap="round" stroke-linejoin="round"/>
</svg>
