<svg width="25" height="24" viewBox="0 0 25 24" fill="none" xmlns="http://www.w3.org/2000/svg">
<path d="M15 10.125H18" stroke="#F4F4F7" stroke-width="1.5" stroke-linecap="round" stroke-linejoin="round"/>
<path d="M7.5 10.125H10.5" stroke="#F4F4F7" stroke-width="1.5" stroke-linecap="round" stroke-linejoin="round"/>
<path d="M9 8.625V11.625" stroke="#F4F4F7" stroke-width="1.5" stroke-linecap="round" stroke-linejoin="round"/>
<path d="M16.8754 5.22192L8.62541 5.25005C7.47955 5.25223 6.37092 5.6572 5.49346 6.39414C4.61599 7.13107 4.02555 8.15304 3.82541 9.2813V9.2813L2.28791 17.1657C2.18919 17.7163 2.26893 18.284 2.5155 18.7861C2.76208 19.2882 3.16259 19.6984 3.65865 19.9568C4.1547 20.2153 4.72036 20.3086 5.27315 20.2231C5.82593 20.1375 6.33694 19.8776 6.73166 19.4813V19.4813L10.7817 15L16.8754 14.9719C18.1683 14.9719 19.4083 14.4583 20.3226 13.5441C21.2368 12.6298 21.7504 11.3899 21.7504 10.0969C21.7504 8.80399 21.2368 7.56402 20.3226 6.64978C19.4083 5.73554 18.1683 5.22192 16.8754 5.22192V5.22192Z" stroke="#F4F4F7" stroke-width="1.5" stroke-linecap="round" stroke-linejoin="round"/>
<path d="M21.675 9.25317L23.2125 17.1657C23.3112 17.7163 23.2315 18.284 22.9849 18.7861C22.7383 19.2882 22.3378 19.6984 21.8418 19.9568C21.3457 20.2153 20.78 20.3086 20.2273 20.2231C19.6745 20.1375 19.1635 19.8776 18.7687 19.4813V19.4813L14.7188 14.9813" stroke="#F4F4F7" stroke-width="1.5" stroke-linecap="round" stroke-linejoin="round"/>
</svg>
