<svg width="32" height="33" viewBox="0 0 32 33" fill="none" xmlns="http://www.w3.org/2000/svg">
<path d="M21.5 13.5L14.1625 20.5L10.5 17M6.8125 25.6875C5.6625 24.5375 6.425 22.125 5.8375 20.7125C5.25 19.3 3 18.0625 3 16.5C3 14.9375 5.225 13.75 5.8375 12.2875C6.45 10.825 5.6625 8.4625 6.8125 7.3125C7.9625 6.1625 10.375 6.925 11.7875 6.3375C13.2 5.75 14.4375 3.5 16 3.5C17.5625 3.5 18.75 5.725 20.2125 6.3375C21.675 6.95 24.0375 6.1625 25.1875 7.3125C26.3375 8.4625 25.575 10.875 26.1625 12.2875C26.75 13.7 29 14.9375 29 16.5C29 18.0625 26.775 19.25 26.1625 20.7125C25.55 22.175 26.3375 24.5375 25.1875 25.6875C24.0375 26.8375 21.625 26.075 20.2125 26.6625C18.8 27.25 17.5625 29.5 16 29.5C14.4375 29.5 13.25 27.275 11.7875 26.6625C10.325 26.05 7.9625 26.8375 6.8125 25.6875Z" stroke="url(#paint0_linear_1662_20366)" stroke-width="2" stroke-linecap="round" stroke-linejoin="round"/>
<defs>
<linearGradient id="paint0_linear_1662_20366" x1="29.0619" y1="29.5" x2="1.78434" y2="28.0824" gradientUnits="userSpaceOnUse">
<stop stop-color="#2F40FF"/>
<stop offset="0.333333" stop-color="#8B65F7"/>
<stop offset="0.666667" stop-color="#FF6883"/>
<stop offset="1" stop-color="#F5A55B"/>
</linearGradient>
</defs>
</svg>
