<svg width="24" height="24" viewBox="0 0 24 24" fill="none" xmlns="http://www.w3.org/2000/svg">
<g id="&#240;&#159;&#146;&#156; Icon / Light/ChatCircleText">
<path id="Vector" d="M4.2565 16.5943C3.13983 14.7103 2.74924 12.4835 3.15804 10.3319C3.56684 8.18038 4.74693 6.25201 6.47677 4.90887C8.2066 3.56572 10.3672 2.90016 12.553 3.03715C14.7388 3.17413 16.7994 4.10423 18.348 5.65284C19.8966 7.20144 20.8267 9.26206 20.9637 11.4478C21.1007 13.6336 20.4351 15.7942 19.0919 17.524C17.7488 19.2539 15.8204 20.434 13.6689 20.8428C11.5173 21.2516 9.29049 20.861 7.4065 19.7443V19.7443L4.294 20.6256C4.16648 20.6629 4.03128 20.6652 3.90256 20.6322C3.77384 20.5993 3.65635 20.5324 3.5624 20.4384C3.46845 20.3445 3.4015 20.227 3.36858 20.0983C3.33565 19.9695 3.33796 19.8343 3.37525 19.7068L4.2565 16.5943Z" stroke="#F4F4F7" stroke-width="1.5" stroke-linecap="round" stroke-linejoin="round"/>
<path id="Vector_2" d="M9 10.5H15" stroke="#F4F4F7" stroke-width="1.5" stroke-linecap="round" stroke-linejoin="round"/>
<path id="Vector_3" d="M9 13.5H15" stroke="#F4F4F7" stroke-width="1.5" stroke-linecap="round" stroke-linejoin="round"/>
</g>
</svg>
