<svg width="24" height="25" viewBox="0 0 24 25" fill="none" xmlns="http://www.w3.org/2000/svg">
<g id="&#240;&#159;&#146;&#156; Icon / Light/DiscordLogo">
<path id="Vector" d="M9 14.9375C9.51777 14.9375 9.9375 14.5178 9.9375 14C9.9375 13.4822 9.51777 13.0625 9 13.0625C8.48223 13.0625 8.0625 13.4822 8.0625 14C8.0625 14.5178 8.48223 14.9375 9 14.9375Z" fill="#F4F4F7" fill-opacity="0.5"/>
<path id="Vector_2" d="M15 14.9375C15.5178 14.9375 15.9375 14.5178 15.9375 14C15.9375 13.4822 15.5178 13.0625 15 13.0625C14.4822 13.0625 14.0625 13.4822 14.0625 14C14.0625 14.5178 14.4822 14.9375 15 14.9375Z" fill="#F4F4F7" fill-opacity="0.5"/>
<path id="Vector_3" d="M6.97559 8.00042C8.60145 7.49086 10.2968 7.23782 12.0006 7.25042C13.7044 7.23782 15.3997 7.49086 17.0256 8.00042M17.0256 17.0004C15.3997 17.51 13.7044 17.763 12.0006 17.7504C10.2968 17.763 8.60145 17.51 6.97559 17.0004M14.5307 17.5723L15.665 19.8223C15.738 19.9757 15.8622 20.0989 16.0161 20.1708C16.1701 20.2426 16.3443 20.2586 16.5088 20.216C18.8057 19.6535 20.7932 18.6785 22.2369 17.4223C22.3458 17.3262 22.4248 17.201 22.4647 17.0615C22.5046 16.9219 22.5036 16.7738 22.4619 16.6348L19.2838 6.02227C19.2529 5.91366 19.1969 5.81383 19.1204 5.73079C19.0438 5.64775 18.9489 5.58382 18.8432 5.54415C17.9453 5.17577 17.0167 4.88716 16.0682 4.68164C15.8859 4.64173 15.6953 4.67032 15.5327 4.76196C15.3702 4.85361 15.2471 5.00189 15.1869 5.17852L14.4463 7.41915M9.46909 17.5723L8.33472 19.8223C8.26173 19.9757 8.13758 20.0989 7.98361 20.1708C7.82964 20.2426 7.65545 20.2586 7.49097 20.216C5.19409 19.6535 3.20659 18.6785 1.76284 17.4223C1.654 17.3262 1.57495 17.201 1.53508 17.0615C1.4952 16.9219 1.49616 16.7738 1.53784 16.6348L4.71597 6.02227C4.7469 5.91366 4.80288 5.81383 4.8794 5.73079C4.95593 5.64775 5.05087 5.58382 5.15659 5.54415C6.05449 5.17577 6.98308 4.88716 7.93159 4.68164C8.11387 4.64173 8.30447 4.67032 8.46701 4.76196C8.62955 4.85361 8.75266 5.00189 8.81284 5.17852L9.55347 7.41915" stroke="#F4F4F7" stroke-opacity="0.5" stroke-width="1.5" stroke-linecap="round" stroke-linejoin="round"/>
</g>
</svg>
