<svg width="24" height="25" viewBox="0 0 24 25" fill="none" xmlns="http://www.w3.org/2000/svg">
<path d="M20.25 9.05938V20C20.25 20.1989 20.171 20.3897 20.0303 20.5303C19.8897 20.671 19.6989 20.75 19.5 20.75H4.5C4.30109 20.75 4.11032 20.671 3.96967 20.5303C3.82902 20.3897 3.75 20.1989 3.75 20V5C3.75 4.80109 3.82902 4.61033 3.96967 4.46967C4.11032 4.32902 4.30109 4.25 4.5 4.25H15.4406C15.538 4.24966 15.6345 4.26853 15.7246 4.30553C15.8147 4.34253 15.8966 4.39694 15.9656 4.46563L20.0344 8.53438C20.1031 8.60341 20.1575 8.68532 20.1945 8.77541C20.2315 8.86549 20.2503 8.96199 20.25 9.05938V9.05938Z" stroke="#F4F4F7" stroke-width="2" stroke-linecap="round" stroke-linejoin="round"/>
<path d="M7.5 20.75V14.75C7.5 14.5511 7.57902 14.3603 7.71967 14.2197C7.86032 14.079 8.05109 14 8.25 14H15.75C15.9489 14 16.1397 14.079 16.2803 14.2197C16.421 14.3603 16.5 14.5511 16.5 14.75V20.75" stroke="#F4F4F7" stroke-width="2" stroke-linecap="round" stroke-linejoin="round"/>
<path d="M14.25 7.25H9" stroke="#F4F4F7" stroke-width="2" stroke-linecap="round" stroke-linejoin="round"/>
</svg>
