<svg width="24" height="24" viewBox="0 0 24 24" fill="none" xmlns="http://www.w3.org/2000/svg">
<g id="&#240;&#159;&#146;&#156; Icon / Light/Gear">
<g id="Vector">
<path d="M12 16.4999C14.4853 16.4999 16.5 14.4852 16.5 11.9999C16.5 9.51466 14.4853 7.49994 12 7.49994C9.51472 7.49994 7.5 9.51466 7.5 11.9999C7.5 14.4852 9.51472 16.4999 12 16.4999Z" stroke="#F4F4F7" stroke-opacity="0.5" stroke-width="1.5" stroke-linecap="round" stroke-linejoin="round"/>
<path d="M17.2213 6.10303C17.4588 6.32178 17.6838 6.54678 17.8963 6.77803L20.4557 7.14365C20.8727 7.86788 21.1941 8.64308 21.4119 9.4499L19.8557 11.5218C19.8557 11.5218 19.8838 12.1593 19.8557 12.478L21.4119 14.5499C21.1951 15.3571 20.8736 16.1324 20.4557 16.8562L17.8963 17.2218C17.8963 17.2218 17.4557 17.6812 17.2213 17.8968L16.8557 20.4562C16.1314 20.8732 15.3562 21.1946 14.5494 21.4124L12.4775 19.8562C12.1594 19.8843 11.8394 19.8843 11.5213 19.8562L9.44941 21.4124C8.64225 21.1956 7.86692 20.8741 7.14316 20.4562L6.77754 17.8968C6.54629 17.678 6.32129 17.453 6.10254 17.2218L3.54316 16.8562C3.12615 16.1319 2.80472 15.3567 2.58691 14.5499L4.14316 12.478C4.14316 12.478 4.11504 11.8405 4.14316 11.5218L2.58691 9.4499C2.80371 8.64274 3.12519 7.8674 3.54316 7.14365L6.10254 6.77803C6.32129 6.54678 6.54629 6.32178 6.77754 6.10303L7.14316 3.54365C7.86739 3.12664 8.64259 2.80521 9.44941 2.5874L11.5213 4.14365C11.8394 4.11552 12.1594 4.11552 12.4775 4.14365L14.5494 2.5874C15.3566 2.8042 16.1319 3.12568 16.8557 3.54365L17.2213 6.10303Z" stroke="#F4F4F7" stroke-opacity="0.5" stroke-width="1.5" stroke-linecap="round" stroke-linejoin="round"/>
</g>
</g>
</svg>
