<svg width="25" height="25" viewBox="0 0 25 25" fill="none" xmlns="http://www.w3.org/2000/svg">
<g id="&#240;&#159;&#146;&#156; Icon / Light/At">
<path id="Vector" d="M16.0833 12.4998C16.0833 14.5709 14.4043 16.2498 12.3333 16.2498C10.2622 16.2498 8.58326 14.5709 8.58326 12.4998C8.58326 10.4288 10.2622 8.74984 12.3333 8.74984C14.4043 8.74984 16.0833 10.4288 16.0833 12.4998ZM16.0833 12.4998C16.0833 14.5717 16.8333 16.2498 18.7083 16.2498C20.5833 16.2498 21.3333 14.5717 21.3333 12.4998C21.3328 10.4946 20.6627 8.54702 19.4293 6.96602C18.1959 5.38502 16.4698 4.26121 14.525 3.7729C12.5801 3.28459 10.5279 3.45975 8.69395 4.27059C6.86 5.08143 5.34935 6.48151 4.40171 8.24867C3.45408 10.0158 3.12373 12.0488 3.46309 14.0251C3.80245 16.0014 4.79208 17.8077 6.27495 19.1575C7.75781 20.5073 9.64898 21.3233 11.6484 21.4759C13.6478 21.6285 15.6409 21.109 17.3114 19.9998M16.0833 12.4998L16.0833 8.74984" stroke="#F4F4F7" stroke-opacity="0.5" stroke-width="1.5" stroke-linecap="round" stroke-linejoin="round"/>
</g>
</svg>
