<svg width="24" height="24" viewBox="0 0 24 24" fill="none" xmlns="http://www.w3.org/2000/svg">
<g id="&#240;&#159;&#146;&#156; Icon / Light/Scroll">
<path id="Vector" d="M18.75 16.5V6.00002C18.7512 5.7042 18.6939 5.41106 18.5813 5.13752C18.4686 4.86397 18.3029 4.61544 18.0938 4.40626C17.8846 4.19708 17.636 4.0314 17.3625 3.91876C17.089 3.80613 16.7958 3.74878 16.5 3.75002H3.75" stroke="#F4F4F7" stroke-width="1.5" stroke-linecap="round" stroke-linejoin="round"/>
<path id="Vector_2" d="M9.75 9.75H15.75" stroke="#F4F4F7" stroke-width="1.5" stroke-linecap="round" stroke-linejoin="round"/>
<path id="Vector_3" d="M9.75 12.75H15.75" stroke="#F4F4F7" stroke-width="1.5" stroke-linecap="round" stroke-linejoin="round"/>
<path id="Vector_4" d="M2.07187 7.50075C1.829 7.22882 1.65585 6.90194 1.56733 6.54826C1.4788 6.19457 1.47756 5.82467 1.56369 5.47039C1.64983 5.11611 1.82077 4.78807 2.0618 4.51451C2.30283 4.24095 2.60673 4.03006 2.94734 3.89999C3.28795 3.76993 3.65507 3.72458 4.01709 3.76786C4.37911 3.81114 4.72519 3.94175 5.02554 4.14844C5.32589 4.35514 5.57151 4.63172 5.74126 4.95439C5.91101 5.27706 5.9998 5.63615 6 6.00075V18.0008C6.00019 18.3653 6.08899 18.7244 6.25874 19.0471C6.42849 19.3698 6.67411 19.6464 6.97446 19.8531C7.27481 20.0598 7.62089 20.1904 7.98291 20.2336C8.34493 20.2769 8.71205 20.2316 9.05266 20.1015C9.39327 19.9714 9.69717 19.7606 9.9382 19.487C10.1792 19.2134 10.3502 18.8854 10.4363 18.5311C10.5224 18.1768 10.5212 17.8069 10.4327 17.4532C10.3441 17.0996 10.171 16.7727 9.92813 16.5008H20.4281C20.7177 16.8246 20.9074 17.2253 20.9743 17.6546C21.0411 18.0838 20.9823 18.5233 20.8048 18.9198C20.6274 19.3163 20.3389 19.653 19.9743 19.8892C19.6096 20.1254 19.1844 20.251 18.75 20.2508H8.25" stroke="#F4F4F7" stroke-width="1.5" stroke-linecap="round" stroke-linejoin="round"/>
</g>
</svg>
