<svg width="20" height="21" viewBox="0 0 20 21" fill="none" xmlns="http://www.w3.org/2000/svg">
<path d="M10 18C14.1421 18 17.5 14.6421 17.5 10.5C17.5 6.35786 14.1421 3 10 3C5.85786 3 2.5 6.35786 2.5 10.5C2.5 14.6421 5.85786 18 10 18Z" stroke="#F4F4F7" stroke-opacity="0.5" stroke-width="1.5" stroke-linecap="round" stroke-linejoin="round"/>
<path d="M10 15.3438C10.4315 15.3438 10.7812 14.994 10.7812 14.5625C10.7812 14.131 10.4315 13.7812 10 13.7812C9.56853 13.7812 9.21875 14.131 9.21875 14.5625C9.21875 14.994 9.56853 15.3438 10 15.3438Z" fill="#F4F4F7" fill-opacity="0.5"/>
<path d="M10 11.75V11.125C10.4326 11.125 10.8556 10.9967 11.2153 10.7563C11.575 10.516 11.8554 10.1743 12.021 9.77462C12.1866 9.37491 12.2299 8.93507 12.1455 8.51074C12.0611 8.08641 11.8527 7.69663 11.5468 7.39071C11.2409 7.08478 10.8511 6.87644 10.4268 6.79203C10.0024 6.70763 9.56259 6.75095 9.16288 6.91651C8.76317 7.08208 8.42153 7.36246 8.18116 7.72219C7.94079 8.08192 7.8125 8.50485 7.8125 8.9375" stroke="#F4F4F7" stroke-opacity="0.5" stroke-width="1.5" stroke-linecap="round" stroke-linejoin="round"/>
</svg>
