<svg width="24" height="25" viewBox="0 0 24 25" fill="none" xmlns="http://www.w3.org/2000/svg">
<path d="M6 15.5C7.65685 15.5 9 14.1569 9 12.5C9 10.8431 7.65685 9.5 6 9.5C4.34315 9.5 3 10.8431 3 12.5C3 14.1569 4.34315 15.5 6 15.5Z" stroke="#F4F4F7" stroke-width="2" stroke-linecap="round" stroke-linejoin="round"/>
<path d="M16.5 22.25C18.1569 22.25 19.5 20.9069 19.5 19.25C19.5 17.5931 18.1569 16.25 16.5 16.25C14.8431 16.25 13.5 17.5931 13.5 19.25C13.5 20.9069 14.8431 22.25 16.5 22.25Z" stroke="#F4F4F7" stroke-width="2" stroke-linecap="round" stroke-linejoin="round"/>
<path d="M16.5 8.75C18.1569 8.75 19.5 7.40685 19.5 5.75C19.5 4.09315 18.1569 2.75 16.5 2.75C14.8431 2.75 13.5 4.09315 13.5 5.75C13.5 7.40685 14.8431 8.75 16.5 8.75Z" stroke="#F4F4F7" stroke-width="2" stroke-linecap="round" stroke-linejoin="round"/>
<path d="M13.9787 7.37207L8.52246 10.8783" stroke="#F4F4F7" stroke-width="2" stroke-linecap="round" stroke-linejoin="round"/>
<path d="M8.52246 14.1221L13.9787 17.6283" stroke="#F4F4F7" stroke-width="2" stroke-linecap="round" stroke-linejoin="round"/>
</svg>
