<svg width="24" height="24" viewBox="0 0 24 24" fill="none" xmlns="http://www.w3.org/2000/svg">
<path d="M7.14342 12.3937L14.2684 3.76875L20.2497 3.75L20.2309 9.73125L11.6059 16.8563" stroke="#F4F4F7" stroke-width="2" stroke-linecap="round" stroke-linejoin="round"/>
<path d="M9.375 14.625L15 9" stroke="#F4F4F7" stroke-width="2" stroke-linecap="round" stroke-linejoin="round"/>
<path d="M7.69727 18.5157L4.89414 21.3188C4.75354 21.459 4.56305 21.5378 4.36446 21.5378C4.16586 21.5378 3.97537 21.459 3.83477 21.3188L2.68164 20.1657C2.54138 20.0251 2.46262 19.8346 2.46262 19.636C2.46262 19.4374 2.54138 19.2469 2.68164 19.1063L5.48477 16.3032C5.55563 16.2334 5.61191 16.1502 5.65032 16.0585C5.68873 15.9667 5.70852 15.8682 5.70852 15.7688C5.70852 15.6693 5.68873 15.5709 5.65032 15.4791C5.61191 15.3874 5.55563 15.3042 5.48477 15.2344L3.53477 13.2844C3.46391 13.2146 3.40763 13.1314 3.36922 13.0397C3.33081 12.948 3.31102 12.8495 3.31102 12.75C3.31102 12.6506 3.33081 12.5521 3.36922 12.4604C3.40763 12.3686 3.46391 12.2855 3.53477 12.2157L4.71602 11.0344C4.78581 10.9636 4.86899 10.9073 4.96073 10.8689C5.05247 10.8305 5.15094 10.8107 5.25039 10.8107C5.34985 10.8107 5.44832 10.8305 5.54006 10.8689C5.6318 10.9073 5.71498 10.9636 5.78477 11.0344L12.966 18.2157C13.0369 18.2855 13.0932 18.3686 13.1316 18.4604C13.17 18.5521 13.1898 18.6506 13.1898 18.75C13.1898 18.8495 13.17 18.948 13.1316 19.0397C13.0932 19.1314 13.0369 19.2146 12.966 19.2844L11.7848 20.4657C11.715 20.5365 11.6318 20.5928 11.5401 20.6312C11.4483 20.6696 11.3499 20.6894 11.2504 20.6894C11.1509 20.6894 11.0525 20.6696 10.9607 20.6312C10.869 20.5928 10.7858 20.5365 10.716 20.4657L8.76602 18.5157C8.69623 18.4448 8.61305 18.3885 8.52131 18.3501C8.42957 18.3117 8.3311 18.2919 8.23164 18.2919C8.13219 18.2919 8.03372 18.3117 7.94198 18.3501C7.85024 18.3885 7.76706 18.4448 7.69727 18.5157Z" stroke="#F4F4F7" stroke-width="2" stroke-linecap="round" stroke-linejoin="round"/>
</svg>
