<svg width="25" height="25" viewBox="0 0 25 25" fill="none" xmlns="http://www.w3.org/2000/svg">
<g id="&#240;&#159;&#146;&#156; Icon / Light/TelegramLogo">
<path id="Vector" d="M8.91685 13.1464L17.345 20.562C17.4424 20.6483 17.5605 20.7077 17.6878 20.7344C17.8151 20.7612 17.9472 20.7544 18.0711 20.7147C18.195 20.675 18.3064 20.6037 18.3944 20.5079C18.4824 20.4121 18.544 20.2951 18.5731 20.1683L22.0981 4.77454C22.1277 4.64197 22.1207 4.50386 22.0778 4.37495C22.035 4.24605 21.958 4.13119 21.855 4.04264C21.752 3.95408 21.6269 3.89516 21.4931 3.87216C21.3592 3.84916 21.2216 3.86294 21.095 3.91204L3.78872 10.7089C3.09497 10.9808 3.18872 11.9933 3.91997 12.1433L8.91685 13.1464ZM8.91685 13.1464L21.6761 3.93076M8.91685 13.1464L8.91675 19.2495C8.917 19.3982 8.96145 19.5435 9.04447 19.6669C9.12748 19.7903 9.24531 19.8862 9.38297 19.9425C9.52063 19.9988 9.67191 20.0128 9.81759 19.9829C9.96327 19.953 10.0968 19.8805 10.2011 19.7745L13.1261 16.8495" stroke="#F4F4F7" stroke-opacity="0.5" stroke-width="1.5" stroke-linecap="round" stroke-linejoin="round"/>
</g>
</svg>
