<svg width="17" height="17" viewBox="0 0 17 17" fill="none" xmlns="http://www.w3.org/2000/svg">
<path d="M11.5 8.50061H14.5C14.6326 8.50061 14.7598 8.55329 14.8536 8.64706C14.9473 8.74083 15 8.868 15 9.00061V13.0006C15 13.1332 14.9473 13.2604 14.8536 13.3542C14.7598 13.4479 14.6326 13.5006 14.5 13.5006H2.5C2.36739 13.5006 2.24021 13.4479 2.14645 13.3542C2.05268 13.2604 2 13.1332 2 13.0006V9.00061C2 8.868 2.05268 8.74083 2.14645 8.64706C2.24021 8.55329 2.36739 8.50061 2.5 8.50061H5.5M8.5 8.50061V2.00061M8.5 2.00061L5.5 5.00061M8.5 2.00061L11.5 5.00061" stroke="#F4F4F7" stroke-opacity="0.5" stroke-width="1.5" stroke-linecap="round" stroke-linejoin="round"/>
<path d="M12.25 11.75C12.6642 11.75 13 11.4142 13 11C13 10.5858 12.6642 10.25 12.25 10.25C11.8358 10.25 11.5 10.5858 11.5 11C11.5 11.4142 11.8358 11.75 12.25 11.75Z" fill="#F4F4F7" fill-opacity="0.5"/>
</svg>
