<svg width="834" height="234" viewBox="0 0 834 234" fill="none" xmlns="http://www.w3.org/2000/svg">
<g filter="url(#filter0_dii_1832_6315)">
<path fill-rule="evenodd" clip-rule="evenodd" d="M278.919 45C245.208 45 219.207 72.1233 219.207 104.88C219.207 137.89 244.988 165 278.919 165C301.609 165 320.744 152.877 330.939 135.008L333.184 131.073L344.404 111.343C345.442 112.865 346.852 114.086 348.456 114.915L336.176 136.313C346.478 153.465 365.129 165 387.261 165C421.205 165 447.207 137.877 447.207 104.88C447.207 72.3564 421.431 45 387.261 45C364.71 45 345.608 57.1424 335.435 74.9741L333.199 78.8935L322.395 97.5348C321.817 95.196 321.069 92.9244 320.164 90.737L330.115 73.5424C319.771 56.5497 301.119 45 278.919 45ZM359.842 116.141C363.903 127.574 374.206 135.799 387.261 135.799C400.316 135.799 410.758 127.574 414.882 116.141H359.842ZM349.351 106.315C351.119 86.3017 366.585 70.3439 387.419 70.3439C406.162 70.3439 420.777 83.2592 424.833 100.423C425.143 101.865 425.379 103.334 425.537 104.828C425.801 107.314 423.793 109.349 421.348 109.349H353.426C351.493 109.349 349.833 108.077 349.351 106.315ZM278.691 70.3439C258.011 70.3439 242.619 86.0677 240.665 105.874C240.972 107.86 242.743 109.349 244.834 109.349H312.756C315.013 109.349 316.897 107.616 316.967 105.394C314.775 85.8146 299.205 70.3439 278.691 70.3439ZM306.54 116.141H251.5C255.56 127.574 265.864 135.799 278.919 135.799C287.456 135.799 294.876 132.281 300.142 126.65C301.133 125.503 302.254 124.053 303.476 122.361C304.714 120.431 305.744 118.346 306.54 116.141Z" fill="url(#paint0_linear_1832_6315)"/>
<path fill-rule="evenodd" clip-rule="evenodd" d="M278.919 45C245.208 45 219.207 72.1233 219.207 104.88C219.207 137.89 244.988 165 278.919 165C301.609 165 320.744 152.877 330.939 135.008L333.184 131.073L344.404 111.343C345.442 112.865 346.852 114.086 348.456 114.915L336.176 136.313C346.478 153.465 365.129 165 387.261 165C421.205 165 447.207 137.877 447.207 104.88C447.207 72.3564 421.431 45 387.261 45C364.71 45 345.608 57.1424 335.435 74.9741L333.199 78.8935L322.395 97.5348C321.817 95.196 321.069 92.9244 320.164 90.737L330.115 73.5424C319.771 56.5497 301.119 45 278.919 45ZM359.842 116.141C363.903 127.574 374.206 135.799 387.261 135.799C400.316 135.799 410.758 127.574 414.882 116.141H359.842ZM349.351 106.315C351.119 86.3017 366.585 70.3439 387.419 70.3439C406.162 70.3439 420.777 83.2592 424.833 100.423C425.143 101.865 425.379 103.334 425.537 104.828C425.801 107.314 423.793 109.349 421.348 109.349H353.426C351.493 109.349 349.833 108.077 349.351 106.315ZM278.691 70.3439C258.011 70.3439 242.619 86.0677 240.665 105.874C240.972 107.86 242.743 109.349 244.834 109.349H312.756C315.013 109.349 316.897 107.616 316.967 105.394C314.775 85.8146 299.205 70.3439 278.691 70.3439ZM306.54 116.141H251.5C255.56 127.574 265.864 135.799 278.919 135.799C287.456 135.799 294.876 132.281 300.142 126.65C301.133 125.503 302.254 124.053 303.476 122.361C304.714 120.431 305.744 118.346 306.54 116.141Z" fill="url(#paint1_linear_1832_6315)" style="mix-blend-mode:overlay"/>
<path d="M89.4392 164.604C97.2929 164.604 106.942 162.795 112.551 159.177V130.456C107.166 133.848 98.8637 135.883 92.3563 135.883C80.688 135.883 73.2831 128.647 73.2831 116.208V76.6325H112.551V49.4947H73.2831V21H41.4196V49.4947H21V76.6325H41.4196V117.113C41.4196 145.155 57.3513 164.604 89.4392 164.604Z" fill="url(#paint2_linear_1832_6315)"/>
<path d="M89.4392 164.604C97.2929 164.604 106.942 162.795 112.551 159.177V130.456C107.166 133.848 98.8637 135.883 92.3563 135.883C80.688 135.883 73.2831 128.647 73.2831 116.208V76.6325H112.551V49.4947H73.2831V21H41.4196V49.4947H21V76.6325H41.4196V117.113C41.4196 145.155 57.3513 164.604 89.4392 164.604Z" fill="url(#paint3_linear_1832_6315)" style="mix-blend-mode:overlay"/>
<path d="M167.294 161.438V98.3428C167.294 85 174.923 76.8587 187.489 76.8587C193.323 76.8587 199.831 78.4417 205.216 81.6078V50.3993C199.606 47.9117 191.753 46.5548 184.572 46.5548C151.587 46.5548 135.431 68.4912 135.431 97.212V161.438H167.294Z" fill="url(#paint4_linear_1832_6315)"/>
<path d="M167.294 161.438V98.3428C167.294 85 174.923 76.8587 187.489 76.8587C193.323 76.8587 199.831 78.4417 205.216 81.6078V50.3993C199.606 47.9117 191.753 46.5548 184.572 46.5548C151.587 46.5548 135.431 68.4912 135.431 97.212V161.438H167.294Z" fill="url(#paint5_linear_1832_6315)" style="mix-blend-mode:overlay"/>
<path d="M502.478 213V154.201C510.781 160.534 521.327 164.604 532.546 164.604C567.103 164.604 590.888 140.18 590.888 105.127C590.888 73.0141 565.083 46.3286 530.751 46.3286C496.195 46.3286 470.615 71.4311 470.615 105.127V213H502.478ZM530.751 134.3C514.371 134.3 502.478 121.184 502.478 105.353C502.478 89.523 514.371 76.6325 530.751 76.6325C547.132 76.6325 559.025 89.523 559.025 105.353C559.025 121.184 547.132 134.3 530.751 134.3Z" fill="url(#paint6_linear_1832_6315)"/>
<path d="M502.478 213V154.201C510.781 160.534 521.327 164.604 532.546 164.604C567.103 164.604 590.888 140.18 590.888 105.127C590.888 73.0141 565.083 46.3286 530.751 46.3286C496.195 46.3286 470.615 71.4311 470.615 105.127V213H502.478ZM530.751 134.3C514.371 134.3 502.478 121.184 502.478 105.353C502.478 89.523 514.371 76.6325 530.751 76.6325C547.132 76.6325 559.025 89.523 559.025 105.353C559.025 121.184 547.132 134.3 530.751 134.3Z" fill="url(#paint7_linear_1832_6315)" style="mix-blend-mode:overlay"/>
<path d="M667.149 164.378C690.71 164.378 709.111 152.845 718.759 132.717L694.301 120.279C689.14 130.682 679.042 136.562 666.925 136.562C650.993 136.562 639.549 126.611 637.305 111.686H719.881V102.187C719.881 71.6573 699.462 45.424 664.232 45.424C629.901 45.424 606.564 72.1096 606.564 104.449C606.564 140.18 632.593 164.378 667.149 164.378ZM638.652 93.8198C640.896 82.5124 650.096 73.4664 664.008 73.4664C677.471 73.4664 686.896 82.2862 688.242 93.8198H638.652Z" fill="url(#paint8_linear_1832_6315)"/>
<path d="M667.149 164.378C690.71 164.378 709.111 152.845 718.759 132.717L694.301 120.279C689.14 130.682 679.042 136.562 666.925 136.562C650.993 136.562 639.549 126.611 637.305 111.686H719.881V102.187C719.881 71.6573 699.462 45.424 664.232 45.424C629.901 45.424 606.564 72.1096 606.564 104.449C606.564 140.18 632.593 164.378 667.149 164.378ZM638.652 93.8198C640.896 82.5124 650.096 73.4664 664.008 73.4664C677.471 73.4664 686.896 82.2862 688.242 93.8198H638.652Z" fill="url(#paint9_linear_1832_6315)" style="mix-blend-mode:overlay"/>
<path d="M775.078 161.438V98.3428C775.078 85 782.707 76.8587 795.273 76.8587C801.107 76.8587 807.615 78.4417 813 81.6078V50.3993C807.39 47.9117 799.537 46.5548 792.356 46.5548C759.371 46.5548 743.214 68.4912 743.214 97.212V161.438H775.078Z" fill="url(#paint10_linear_1832_6315)"/>
<path d="M775.078 161.438V98.3428C775.078 85 782.707 76.8587 795.273 76.8587C801.107 76.8587 807.615 78.4417 813 81.6078V50.3993C807.39 47.9117 799.537 46.5548 792.356 46.5548C759.371 46.5548 743.214 68.4912 743.214 97.212V161.438H775.078Z" fill="url(#paint11_linear_1832_6315)" style="mix-blend-mode:overlay"/>
</g>
<defs>
<filter id="filter0_dii_1832_6315" x="0.750006" y="0.750006" width="832.5" height="232.5" filterUnits="userSpaceOnUse" color-interpolation-filters="sRGB">
<feFlood flood-opacity="0" result="BackgroundImageFix"/>
<feColorMatrix in="SourceAlpha" type="matrix" values="0 0 0 0 0 0 0 0 0 0 0 0 0 0 0 0 0 0 127 0" result="hardAlpha"/>
<feOffset/>
<feGaussianBlur stdDeviation="10.125"/>
<feComposite in2="hardAlpha" operator="out"/>
<feColorMatrix type="matrix" values="0 0 0 0 0 0 0 0 0 0 0 0 0 0 0 0 0 0 0.25 0"/>
<feBlend mode="normal" in2="BackgroundImageFix" result="effect1_dropShadow_1832_6315"/>
<feBlend mode="normal" in="SourceGraphic" in2="effect1_dropShadow_1832_6315" result="shape"/>
<feColorMatrix in="SourceAlpha" type="matrix" values="0 0 0 0 0 0 0 0 0 0 0 0 0 0 0 0 0 0 127 0" result="hardAlpha"/>
<feOffset dy="1.26562"/>
<feGaussianBlur stdDeviation="1.26562"/>
<feComposite in2="hardAlpha" operator="arithmetic" k2="-1" k3="1"/>
<feColorMatrix type="matrix" values="0 0 0 0 1 0 0 0 0 1 0 0 0 0 1 0 0 0 0.25 0"/>
<feBlend mode="normal" in2="shape" result="effect2_innerShadow_1832_6315"/>
<feColorMatrix in="SourceAlpha" type="matrix" values="0 0 0 0 0 0 0 0 0 0 0 0 0 0 0 0 0 0 127 0" result="hardAlpha"/>
<feOffset dy="-2.53125"/>
<feGaussianBlur stdDeviation="0.632812"/>
<feComposite in2="hardAlpha" operator="arithmetic" k2="-1" k3="1"/>
<feColorMatrix type="matrix" values="0 0 0 0 0 0 0 0 0 0 0 0 0 0 0 0 0 0 0.25 0"/>
<feBlend mode="normal" in2="effect2_innerShadow_1832_6315" result="effect3_innerShadow_1832_6315"/>
</filter>
<linearGradient id="paint0_linear_1832_6315" x1="417" y1="21" x2="417" y2="212.996" gradientUnits="userSpaceOnUse">
<stop stop-color="#515FFF"/>
<stop offset="1" stop-color="#333B93"/>
</linearGradient>
<linearGradient id="paint1_linear_1832_6315" x1="20.2825" y1="117" x2="812.283" y2="117" gradientUnits="userSpaceOnUse">
<stop stop-color="#F36890"/>
<stop offset="1" stop-color="#7C6BE7"/>
</linearGradient>
<linearGradient id="paint2_linear_1832_6315" x1="417" y1="21" x2="417" y2="212.996" gradientUnits="userSpaceOnUse">
<stop stop-color="#515FFF"/>
<stop offset="1" stop-color="#333B93"/>
</linearGradient>
<linearGradient id="paint3_linear_1832_6315" x1="20.2825" y1="117" x2="812.283" y2="117" gradientUnits="userSpaceOnUse">
<stop stop-color="#F36890"/>
<stop offset="1" stop-color="#7C6BE7"/>
</linearGradient>
<linearGradient id="paint4_linear_1832_6315" x1="417" y1="21" x2="417" y2="212.996" gradientUnits="userSpaceOnUse">
<stop stop-color="#515FFF"/>
<stop offset="1" stop-color="#333B93"/>
</linearGradient>
<linearGradient id="paint5_linear_1832_6315" x1="20.2825" y1="117" x2="812.283" y2="117" gradientUnits="userSpaceOnUse">
<stop stop-color="#F36890"/>
<stop offset="1" stop-color="#7C6BE7"/>
</linearGradient>
<linearGradient id="paint6_linear_1832_6315" x1="417" y1="21" x2="417" y2="212.996" gradientUnits="userSpaceOnUse">
<stop stop-color="#515FFF"/>
<stop offset="1" stop-color="#333B93"/>
</linearGradient>
<linearGradient id="paint7_linear_1832_6315" x1="20.2825" y1="117" x2="812.283" y2="117" gradientUnits="userSpaceOnUse">
<stop stop-color="#F36890"/>
<stop offset="1" stop-color="#7C6BE7"/>
</linearGradient>
<linearGradient id="paint8_linear_1832_6315" x1="417" y1="21" x2="417" y2="212.996" gradientUnits="userSpaceOnUse">
<stop stop-color="#515FFF"/>
<stop offset="1" stop-color="#333B93"/>
</linearGradient>
<linearGradient id="paint9_linear_1832_6315" x1="20.2825" y1="117" x2="812.283" y2="117" gradientUnits="userSpaceOnUse">
<stop stop-color="#F36890"/>
<stop offset="1" stop-color="#7C6BE7"/>
</linearGradient>
<linearGradient id="paint10_linear_1832_6315" x1="417" y1="21" x2="417" y2="212.996" gradientUnits="userSpaceOnUse">
<stop stop-color="#515FFF"/>
<stop offset="1" stop-color="#333B93"/>
</linearGradient>
<linearGradient id="paint11_linear_1832_6315" x1="20.2825" y1="117" x2="812.283" y2="117" gradientUnits="userSpaceOnUse">
<stop stop-color="#F36890"/>
<stop offset="1" stop-color="#7C6BE7"/>
</linearGradient>
</defs>
</svg>
